<svg xml:space="preserve" style="max-height: 500px" viewBox="19.56 161.696 603.7520000000001 318.176" y="0px" x="0px" xmlns:xlink="http://www.w3.org/1999/xlink" xmlns="http://www.w3.org/2000/svg" id="layer" version="1.1" width="603.7520000000001" height="318.176">
<style type="text/css">
	.st0{fill:#D41D24;}
	.st1{fill:#2D2D2D;}
	.st2{fill:#E2E2E2;}
	.st3{fill:#FFFFFF;}
	.st4{fill:#231F20;}
</style>
<path d="M22,163.7h392.6V416H22V163.7z" class="st0"/>
<path d="M22,416h600v62.3H22V416z" class="st1"/>
<path d="M414.6,163.7H622V416H414.6V163.7z" class="st2"/>
<path d="M66.5,433.4l6.5,18.7v-18.7h5.2v27.1h-6.5l-6.5-19.4v19.4h-5.2v-27.4h6.5L66.5,433.4z M104.6,460.8h-5.8l-1-5.8&#10;&#9;h-7.4l-1.3,5.8h-5.8l7.4-27.4h6.5L104.6,460.8z M93.9,438.3l-2.6,12.3h5.5L93.9,438.3z M121.4,442.8c0.1-1.5-0.1-3.1-0.6-4.5&#10;&#9;c-0.9-1.3-2.8-1.8-4.2-1c-0.5,0.5-0.8,1.2-1,1.9c-0.3,1-0.5,2.1-0.6,3.2v5.2c-0.1,1.6-0.1,3.2,0,4.8c0.1,1.1,0.3,2.2,0.6,3.2&#10;&#9;c0.2,0.5,0.5,1,1,1.3c0.5,0.2,1.1,0.4,1.6,0.3c0.5,0.1,1.1,0.1,1.6,0c0.5-0.3,0.8-0.8,1-1.3c0.3-0.6,0.5-1.3,0.6-1.9&#10;&#9;c0.2-1.3,0.4-2.6,0.3-3.9h5.5c0.1,1.5,0.1,3,0,4.5c-0.3,1.2-0.9,2.3-1.6,3.2c-0.6,1.1-1.5,2-2.6,2.6c-1.4,0.6-3,0.8-4.5,0.6&#10;&#9;c-1.7,0.1-3.3-0.3-4.8-1c-1.4-0.6-2.5-1.6-3.2-2.9c-0.6-1.4-0.9-3-1-4.5c-0.1-1.9-0.1-3.9,0-5.8c-0.1-1.9-0.1-3.9,0-5.8&#10;&#9;c0.2-1.6,0.6-3.1,1.3-4.5c0.7-1.2,1.7-2.2,2.9-2.9c1.5-0.7,3.2-1.1,4.8-1c1.7-0.1,3.3,0.2,4.8,1c1.1,0.6,2,1.5,2.6,2.6&#10;&#9;c0.5,1,0.9,2.1,1,3.2c0.1,1.1,0.1,2.2,0,3.2C126.8,442.8,121.4,442.8,121.4,442.8z M133.6,433.4h5.5v10.3h6.5v-10.3h5.5v27.1h-5.5&#10;&#9;v-12.3h-6.5v12.3h-5.5V433.4z M158.1,433.4h10c2-0.2,3.9,0.4,5.5,1.6c1.4,1.4,2.1,3.5,1.9,5.5c0.1,1.6-0.2,3.1-1,4.5&#10;&#9;c-0.8,1.2-2.1,2-3.5,2.3c1.2,0,2.3,0.5,3.2,1.3c0.6,1,1,2.1,1,3.2v3.9l0.3,3.2c0.1,0.7,0.4,1.2,1,1.6h-5.8c-0.3-0.3-0.5-0.6-0.6-1&#10;&#9;v-1.6l-0.3-5.2c0-0.9-0.2-1.8-0.6-2.6c-0.7-0.7-1.6-1-2.6-1h-3.2v11.3h-5.2v-27.4V433.4z M163.6,445.4h2.3c1.2,0.1,2.3-0.3,3.2-1&#10;&#9;c0.8-0.9,1.1-2.1,1-3.2c0.4-1.7-0.7-3.5-2.4-3.9c-0.5-0.1-1-0.1-1.5,0h-2.6V445.4z M182.6,460.8v-27.4h5.8v27.1L182.6,460.8z&#10;&#9; M207.2,442.8c0.1-1.5-0.1-3.1-0.6-4.5c-0.5-0.9-1.5-1.4-2.6-1.3c-0.6-0.1-1.1,0-1.6,0.3c-0.6,0.5-1.1,1.2-1.3,1.9&#10;&#9;c-0.2,1.1-0.3,2.1-0.3,3.2v5.2c-0.1,1.6-0.1,3.2,0,4.8c0.1,1.1,0.3,2.2,0.6,3.2c0.2,0.5,0.5,1,1,1.3c0.5,0.2,1.1,0.4,1.6,0.3&#10;&#9;c0.4,0.1,0.9,0.1,1.3,0c0.6-0.2,1.1-0.7,1.3-1.3c0.3-0.6,0.5-1.3,0.6-1.9c0.1-1.3,0.1-2.6,0-3.9h5.8c0,1.5-0.1,3-0.3,4.5&#10;&#9;c-0.2,1.1-0.7,2.2-1.3,3.2c-0.6,1.1-1.5,2-2.6,2.6c-1.4,0.6-3,0.8-4.5,0.6c-1.6,0.2-3.3,0-4.8-0.6c-1.4-0.6-2.5-1.6-3.2-2.9&#10;&#9;c-0.6-1.4-0.9-3-1-4.5c-0.2-1.9-0.3-3.9-0.3-5.8c-0.1-1.9-0.1-3.9,0-5.8c0.3-1.6,0.8-3.1,1.6-4.5c0.7-1.2,1.7-2.2,2.9-2.9&#10;&#9;c1.5-0.7,3.2-1.1,4.8-1c1.6,0,3.1,0.3,4.5,1c1.1,0.6,2,1.5,2.6,2.6c0.6,1,1.1,2.1,1.3,3.2c0.1,1.1,0.1,2.2,0,3.2h-5.5V442.8z&#10;&#9; M219.4,433.4h5.5v10.3h6.5v-10.3h5.5v27.1h-5.2v-12.3h-6.5v12.3h-5.5L219.4,433.4z M260.1,433.4v4.5h-6.5v22.6h-5.2v-22.6h-6.1&#10;&#9;v-4.5H260.1z M280.7,433.4v4.5H271v6.5h9v4.5h-9v7.4h10v4.2h-15.8v-27.4h15.5V433.4z M293.3,433.4l6.8,18.7v-18.7h5.2v27.1h-6.5&#10;&#9;l-6.5-19.4v19.4h-5.2v-27.4h6.5L293.3,433.4z M324.6,433.4h15.5v4.5h-10v6.5h9.4v4.5h-9.4v11.9h-5.5L324.6,433.4z M350.7,433.4v19.4&#10;&#9;c0,0.5,0,1.1,0,1.6c0.1,0.6,0.3,1.1,0.6,1.6c0.2,0.4,0.6,0.7,1,1c0.5,0.2,1.1,0.4,1.6,0.3c0.6,0,1.1-0.1,1.6-0.3&#10;&#9;c0.4-0.2,0.7-0.6,1-1c0.2-0.5,0.3-1.1,0.3-1.6c0.1-0.6,0.1-1.3,0-1.9v-19.4h5.8v19.4c0.1,1.5-0.1,3.1-0.6,4.5&#10;&#9;c-0.4,1-1.1,1.9-1.9,2.6c-0.8,0.7-1.8,1.1-2.9,1.3c-2.1,0.4-4.3,0.4-6.5,0c-1.2-0.1-2.3-0.6-3.2-1.3c-0.7-0.7-1.3-1.6-1.6-2.6&#10;&#9;c-0.6-1.4-0.9-3-1-4.5v-19.4h5.8L350.7,433.4z M348.5,427h4.2v4.5h-4.2V427z M354.9,427h4.5v4.5h-4.5V427z M369.1,433.4h10.3&#10;&#9;c2-0.2,3.9,0.4,5.5,1.6c1.4,1.4,2.1,3.5,1.9,5.5c0,1.6-0.4,3.2-1.3,4.5c-0.7,1.1-1.9,2-3.2,2.3c1.1,0.1,2.1,0.5,2.9,1.3&#10;&#9;c0.7,0.9,1.2,2,1.3,3.2v3.9l0.3,3.2c0.1,0.7,0.4,1.2,1,1.6H382c-0.3-0.3-0.5-0.6-0.6-1v-1.6l-0.3-5.2c0-0.9-0.4-1.8-1-2.6&#10;&#9;c-0.6-0.6-1.4-1-2.3-1h-3.2v11.3h-5.5v-27.4V433.4z M374.9,445.4h2.3c1.2,0.1,2.3-0.3,3.2-1c0.8-0.9,1.1-2.1,1-3.2&#10;&#9;c0.4-1.7-0.7-3.5-2.4-3.9c-0.5-0.1-1-0.1-1.5,0h-2.6V445.4z M410.7,452.1v1c0,0.5,0,1.1,0,1.6c0.1,0.5,0.3,0.9,0.6,1.3&#10;&#9;c0.2,0.4,0.6,0.7,1,1c0.6,0.1,1.3,0.1,1.9,0c0.8,0,1.6-0.2,2.3-0.6c0.7-0.7,1-1.6,1-2.6c0.1-0.5,0.1-1.1,0-1.6c-0.2-0.4-0.6-0.7-1-1&#10;&#9;c-0.5-0.4-1-0.7-1.6-1c-0.7-0.4-1.5-0.7-2.3-1c-1.1-0.4-2.2-1-3.2-1.6c-0.8-0.4-1.6-1-2.3-1.6c-0.6-0.7-1-1.4-1.3-2.3&#10;&#9;c-0.3-1-0.4-2.1-0.3-3.2c-0.1-2.2,0.7-4.3,2.3-5.8c1.8-1.4,4.1-2.1,6.5-1.9c1.1-0.1,2.2-0.1,3.2,0c1,0.3,1.8,0.9,2.6,1.6&#10;&#9;c0.8,0.6,1.5,1.4,1.9,2.3c0.4,1,0.6,2.1,0.6,3.2v1h-5.5c0.1-1.1-0.1-2.2-0.6-3.2c-0.5-0.7-1.4-1-2.3-1c-0.6,0-1.1,0.1-1.6,0.3&#10;&#9;c-0.4,0.1-0.7,0.4-1,0.6c-0.4,0.3-0.6,0.8-0.6,1.3c0,0.3,0,0.6,0,1c0,0.8,0.2,1.6,0.6,2.3c0.6,0.7,1.4,1.3,2.3,1.6l4.2,1.9&#10;&#9;c0.9,0.3,1.8,0.8,2.6,1.3c0.6,0.5,1.2,1,1.6,1.6c0.4,0.6,0.8,1.2,1,1.9c0.1,0.8,0.1,1.5,0,2.3c0.3,2.4-0.5,4.8-2.3,6.5&#10;&#9;c-2.1,1.4-4.6,2.1-7.1,1.9c-2.3,0.2-4.6-0.5-6.5-1.9c-1.5-1.6-2.3-3.6-2.3-5.8v-1.3h5.2L410.7,452.1z M434.3,433.4v19.4&#10;&#9;c0,0.5,0,1.1,0,1.6c0.1,0.6,0.3,1.1,0.6,1.6c0.2,0.4,0.6,0.7,1,1c0.5,0.2,1.1,0.4,1.6,0.3c0.6,0,1.1-0.1,1.6-0.3&#10;&#9;c0.4-0.2,0.7-0.6,1-1c0.3-0.5,0.5-1,0.6-1.6c0.1-0.6,0.1-1.3,0-1.9v-19.4h5.8v19.4c0,1.6-0.3,3.1-1,4.5c-0.4,1-1.1,1.9-1.9,2.6&#10;&#9;c-0.8,0.7-1.8,1.1-2.9,1.3c-2.1,0.4-4.3,0.4-6.5,0c-1.1-0.2-2.1-0.6-2.9-1.3c-0.9-0.7-1.5-1.6-1.9-2.6c-0.5-1.4-0.7-3-0.6-4.5v-19.4&#10;&#9;h5.5V433.4z M432,427h4.5v4.5h-4.8L432,427z M438.5,427h4.5v4.5h-4.2L438.5,427z M453.3,433.4h9c1.6,0,3.1,0.3,4.5,1&#10;&#9;c1.2,0.5,2.2,1.4,2.9,2.6c0.7,1.3,1.1,2.7,1.3,4.2c0.2,1.8,0.3,3.7,0.3,5.5c0.1,2.2,0,4.3-0.3,6.5c-0.3,1.5-0.8,2.9-1.6,4.2&#10;&#9;c-0.7,1.1-1.7,2-2.9,2.6c-1.4,0.6-3,1-4.5,1h-8.7V433.4L453.3,433.4z M458.8,456.6h2.6c0.8,0.1,1.5,0,2.3-0.3c0.6-0.4,1-1,1.3-1.6&#10;&#9;c0.4-1,0.6-2.1,0.6-3.2c0.3-2.9,0.3-5.8,0-8.7c0-1.1-0.2-2.2-0.6-3.2c-0.3-0.6-0.7-1.2-1.3-1.6c-0.8-0.5-1.7-0.7-2.6-0.6h-2.3&#10;&#9;C458.8,437.3,458.8,456.6,458.8,456.6z M494.3,433.4v4.5h-6.1v22.6h-5.5v-22.6h-5.8v-4.5H494.3z M500.1,460.8v-27.4h5.5v27.1&#10;&#9;L500.1,460.8z M512.6,433.4H523c2-0.2,3.9,0.4,5.5,1.6c1.4,1.4,2.1,3.5,1.9,5.5c0,1.6-0.4,3.2-1.3,4.5c-0.7,1.1-1.9,2-3.2,2.3&#10;&#9;c1.1,0.1,2.1,0.5,2.9,1.3c0.7,0.9,1.2,2,1.3,3.2v7.1c0.1,0.7,0.6,1.3,1.3,1.6h-6.1c-0.2-0.3-0.3-0.6-0.3-1v-1.6l-0.3-5.2&#10;&#9;c0-0.9-0.4-1.8-1-2.6c-0.7-0.7-1.6-1-2.6-1h-2.9v11.3h-5.5v-27.4L512.6,433.4z M518.5,445.4h2.3c1.2,0.1,2.3-0.3,3.2-1&#10;&#9;c0.8-0.9,1.1-2.1,1-3.2c0.4-1.7-0.7-3.5-2.4-3.9c-0.5-0.1-1-0.1-1.5,0h-2.6V445.4z M536.8,447c-0.1-1.9-0.1-3.9,0-5.8&#10;&#9;c0.2-1.6,0.6-3.1,1.3-4.5c0.7-1.3,1.9-2.3,3.2-2.9c3.1-1.3,6.6-1.3,9.7,0c1.3,0.8,2.3,1.9,2.9,3.2c0.6,1.3,1.1,2.7,1.3,4.2&#10;&#9;c0.4,3.9,0.4,7.8,0,11.6c-0.1,1.6-0.6,3.1-1.3,4.5c-0.7,1.4-1.8,2.6-3.2,3.2c-3.1,1.3-6.6,1.3-9.7,0c-1.3-0.7-2.3-1.8-2.9-3.2&#10;&#9;c-0.7-1.4-1.1-2.9-1.3-4.5C536.7,450.8,536.7,448.9,536.8,447z M542.3,447v4.8c0.1,1.1,0.3,2.2,0.6,3.2c0.2,0.6,0.5,1.2,1,1.6&#10;&#9;c0.6,0.4,1.2,0.6,1.9,0.6c0.8,0.1,1.6-0.2,2.3-0.6c0.5-0.4,0.8-1,1-1.6c0.3-1,0.6-2.1,0.6-3.2c0.2-3.2,0.2-6.5,0-9.7&#10;&#9;c-0.1-1.1-0.3-2.2-0.6-3.2c-0.2-0.6-0.5-1.2-1-1.6c-0.6-0.3-1.3-0.4-1.9-0.3c-0.8-0.2-1.6-0.1-2.3,0.3c-0.5,0.5-0.9,1.2-1,1.9&#10;&#9;c-0.3,1-0.6,2.1-0.6,3.2V447z M561.7,460.8v-27.4h5.5V456h9.7v4.8H561.7z" class="st3"/>
<path d="M448.5,341.2h21v23.2h-21V341.2z M514.6,258.3h-24.5v-19.4h24.5V258.3z M514.6,364.7h-24.5v-88.1h24.5V364.7z&#10;&#9; M526.5,276.6h9.7v-14.2l24.8-11v25.2h12.6v15.2h-12.9v46.8c0,6.5,0,11,8.1,11c1.4,0.1,2.8,0,4.2-0.3v15.2c-4.2,0.6-8.4,0.9-12.6,1&#10;&#9;c-21.3,0-23.9-14.2-23.9-19.4v-54.5h-10V276.6z" class="st4"/>
<path d="M89.1,328.3c-0.4,4.6,0.1,9.2,1.6,13.5c1.6,3.5,5.2,5.5,11.3,5.5c6,0.4,11.2-4.2,11.6-10.3c0-0.4,0-0.9,0-1.3&#10;&#9;c0-23.9-55.5-18.7-55.5-54.8c0-24.2,24.2-31.6,44.5-31.6c21.6,0,41,10.3,39,34.8H111c0-8.1-1-12.9-3.2-14.5c-2.3-2-5.4-3-8.4-2.6&#10;&#9;c-6.8,0-10.6,4.5-10.6,11.9c0.3,18.4,55.8,17.1,55.8,53.5c0,19.4-16.1,34.5-42.3,34.5c-27.7,0-45.8-7.1-44.2-38.7H89.1z&#10;&#9; M150.7,251.5h12.9v-17.7l31.3-14.2v32.3H211v19.4h-16.1v60.3c0,8.4,0,13.9,10,13.9c1.8,0.1,3.7,0,5.5-0.3v19.4&#10;&#9;c-5.3,0.8-10.7,1.2-16.1,1.3c-27.4,0-31-18.4-31-25.2v-69.4h-12.9v-19.4L150.7,251.5z M223,306.6c0-31,4.2-57.4,45.8-57.4&#10;&#9;s46.1,26.5,46.1,57.4c0,35.5-5.5,60-46.1,60S223,341.8,223,306.6 M283.3,304.7c0-23.2-1-35.5-14.5-35.5c-13.5,0-14.5,12.3-14.5,35.5&#10;&#9;c0,34.5,3.2,41.9,14.5,41.9C280.1,346.6,283.3,339.2,283.3,304.7 M339.7,203.1h31.6v161.3h-31.6V203.1z" class="st3"/>
</svg>